<?xml version="1.0" encoding="UTF-8" standalone="no"?>
<!DOCTYPE svg PUBLIC "-//W3C//DTD SVG 1.1//EN" "http://www.w3.org/Graphics/SVG/1.1/DTD/svg11.dtd">
<svg width="100%" height="100%" viewBox="0 0 24 24" version="1.1" xmlns="http://www.w3.org/2000/svg" xmlns:xlink="http://www.w3.org/1999/xlink" xml:space="preserve" xmlns:serif="http://www.serif.com/" style="fill-rule:evenodd;clip-rule:evenodd;stroke-linejoin:round;stroke-miterlimit:2;">
    <path d="M20.47,2L3.53,2C3.523,2 3.517,2 3.51,2C2.722,2 2.071,2.642 2.06,3.43L2.06,20.57C2.071,21.358 2.722,22 3.51,22C3.517,22 3.523,22 3.53,22L20.47,22C20.477,22 20.483,22 20.49,22C21.278,22 21.929,21.358 21.94,20.57L21.94,3.43C21.929,2.642 21.278,2 20.49,2C20.483,2 20.477,2 20.47,2ZM8.09,18.74L5.09,18.74L5.09,9.74L8.09,9.74L8.09,18.74ZM6.59,8.48C5.734,8.48 5.03,7.776 5.03,6.92C5.03,6.064 5.734,5.36 6.59,5.36C6.649,5.353 6.708,5.35 6.767,5.35C7.628,5.35 8.337,6.059 8.337,6.92C8.337,7.781 7.628,8.49 6.767,8.49C6.708,8.49 6.649,8.487 6.59,8.48ZM18.91,18.74L15.91,18.74L15.91,13.91C15.91,12.7 15.48,11.91 14.39,11.91C13.701,11.915 13.084,12.352 12.85,13C12.772,13.235 12.738,13.483 12.75,13.73L12.75,18.73L9.75,18.73L9.75,9.73L12.75,9.73L12.75,11C13.305,10.038 14.35,9.459 15.46,9.5C17.46,9.5 18.91,10.79 18.91,13.56L18.91,18.74Z" style="fill:white;fill-rule:nonzero;"/>
</svg>
