<svg xmlns="http://www.w3.org/2000/svg" enable-background="new 0 0 32 32" viewBox="0 0 32 32"><path d="M16,0.5C7.45313,0.5,0.5,7.45313,0.5,16S7.45313,31.5,16,31.5S31.5,24.54688,31.5,16S24.54688,0.5,16,0.5z M22.65283,19.12671c0.08575-1.03137,0.13281-2.07898,0.13281-3.12671s-0.04706-2.09534-0.13281-3.12671C26.47046,13.70447,28.5,15.13007,28.5,16S26.47046,18.29553,22.65283,19.12671z M16,28.5c-0.86993,0-2.29553-2.02954-3.12671-5.84717c1.03137,0.08575,2.07898,0.13281,3.12671,0.13281s2.09534-0.04706,3.12671-0.13281C18.29553,26.47046,16.86993,28.5,16,28.5z M16,19.78564c-1.30023,0-2.49451-0.07013-3.60168-0.18396C12.28448,18.49451,12.21436,17.30023,12.21436,16s0.07013-2.49451,0.18396-3.60168c1.10718-0.11383,2.30145-0.18396,3.60168-0.18396s2.49451,0.07013,3.60168,0.18396c0.11383,1.10718,0.18396,2.30145,0.18396,3.60168s-0.07013,2.49451-0.18396,3.60168C18.49451,19.71552,17.30023,19.78564,16,19.78564z M3.5,16c0-0.86993,2.02954-2.29553,5.84717-3.12671C9.26141,13.90466,9.21436,14.95227,9.21436,16s0.04706,2.09534,0.13281,3.12671C5.52954,18.29553,3.5,16.86993,3.5,16z M16,3.5c0.86993,0,2.29553,2.02954,3.12671,5.84717C18.09534,9.26141,17.04773,9.21436,16,9.21436s-2.09534,0.04706-3.12671,0.13281C13.70447,5.52954,15.13007,3.5,16,3.5z M27.59399,11.35126c-1.50153-0.70978-3.34314-1.24121-5.34674-1.59851c-0.3573-2.0036-0.88873-3.84521-1.59851-5.34674C23.80518,5.67633,26.32367,8.19482,27.59399,11.35126z M11.35126,4.40607c-0.70978,1.50153-1.24121,3.34314-1.59851,5.34668c-2.00354,0.3573-3.84515,0.88861-5.34668,1.59845C5.67639,8.19476,8.19489,5.67639,11.35126,4.40607z M4.40613,20.6488c1.50153,0.70984,3.34308,1.24115,5.34662,1.59845c0.3573,2.00354,0.88861,3.84509,1.59845,5.34662C8.19489,26.32355,5.67645,23.80511,4.40613,20.6488z M20.6488,27.59393c0.70984-1.50153,1.24115-3.34314,1.59845-5.34668c2.00354-0.3573,3.84515-0.88873,5.34668-1.59851C26.32361,23.80511,23.80524,26.32361,20.6488,27.59393z"/></svg>