<?xml version="1.0" encoding="UTF-8" standalone="no"?>
<!DOCTYPE svg PUBLIC "-//W3C//DTD SVG 1.1//EN" "http://www.w3.org/Graphics/SVG/1.1/DTD/svg11.dtd">
<svg width="100%" height="100%" viewBox="0 0 32 32" version="1.1" xmlns="http://www.w3.org/2000/svg" xmlns:xlink="http://www.w3.org/1999/xlink" xml:space="preserve" xmlns:serif="http://www.serif.com/" style="fill-rule:evenodd;clip-rule:evenodd;stroke-linejoin:round;stroke-miterlimit:2;">
    <path d="M16,0.5C7.453,0.5 0.5,7.453 0.5,16C0.5,24.547 7.453,31.5 16,31.5C24.547,31.5 31.5,24.547 31.5,16C31.5,7.453 24.547,0.5 16,0.5ZM22.653,19.127C22.739,18.095 22.786,17.048 22.786,16C22.786,14.952 22.739,13.905 22.653,12.873C26.47,13.704 28.5,15.13 28.5,16C28.5,16.87 26.47,18.296 22.653,19.127ZM16,28.5C15.13,28.5 13.704,26.47 12.873,22.653C13.905,22.739 14.952,22.786 16,22.786C17.048,22.786 18.095,22.739 19.127,22.653C18.296,26.47 16.87,28.5 16,28.5ZM16,19.786C14.7,19.786 13.505,19.716 12.398,19.602C12.284,18.495 12.214,17.3 12.214,16C12.214,14.7 12.284,13.505 12.398,12.398C13.506,12.284 14.7,12.214 16,12.214C17.3,12.214 18.495,12.284 19.602,12.398C19.716,13.506 19.786,14.7 19.786,16C19.786,17.3 19.716,18.495 19.602,19.602C18.495,19.716 17.3,19.786 16,19.786ZM3.5,16C3.5,15.13 5.53,13.704 9.347,12.873C9.261,13.905 9.214,14.952 9.214,16C9.214,17.048 9.261,18.095 9.347,19.127C5.53,18.296 3.5,16.87 3.5,16ZM16,3.5C16.87,3.5 18.296,5.53 19.127,9.347C18.095,9.261 17.048,9.214 16,9.214C14.952,9.214 13.905,9.261 12.873,9.347C13.704,5.53 15.13,3.5 16,3.5ZM27.594,11.351C26.092,10.641 24.251,10.11 22.247,9.753C21.89,7.749 21.359,5.908 20.649,4.406C23.805,5.676 26.324,8.195 27.594,11.351ZM11.351,4.406C10.641,5.908 10.11,7.749 9.753,9.753C7.749,10.11 5.908,10.641 4.406,11.351C5.676,8.195 8.195,5.676 11.351,4.406ZM4.406,20.649C5.908,21.359 7.749,21.89 9.753,22.247C10.11,24.251 10.641,26.092 11.351,27.594C8.195,26.324 5.676,23.805 4.406,20.649ZM20.649,27.594C21.359,26.092 21.89,24.251 22.247,22.247C24.251,21.89 26.092,21.359 27.594,20.649C26.324,23.805 23.805,26.324 20.649,27.594Z" style="fill:white;fill-rule:nonzero;"/>
</svg>
